@startuml
'https://plantuml.com/class-diagram
scale 0.6

skinparam classAttributeIconSize 0
skinparam classFontStyle Bold
skinparam style strictuml
hide empty members

class Main {
    + {static} main(args:String[*])
}
Main .> fonctionnement.mdj.Mdj: <<appelle>>


package gameContent
{
    package items
    {
        class Armurerie {
            +<<create>> Armurerie():Armure

            +getArmes():Arme[*]
            +getArmures():Armure[*]
            +getObjets():Items[*]

            +addArmes(armes:Arme)
            +addArmures(armures:Armure)
            +deleteArmes(arme:Arme)
            +deleteArmures(armure:Armure)
        }
        Armurerie .> gameContent.items.armes.Arme: <<utilise>>
        Armurerie .> gameContent.items.armures.Armure: <<utilise>>

        Armurerie "1" *--> "0..*-m_armes" gameContent.items.armes.Arme: contient des >
        Armurerie "1" *--> "0..*-m_armures" gameContent.items.armures.Armure: contient des >



        class Equipement {
            +<<create>> Equipement():Equipement
            +<<create>> Equipement(arme:Arme, armure:Armure):Equipement

            +getArme():Arme
            +getArmure():Armure

            +setArme(newWeapon:Arme):Integer[*]
            +setArmure(newShield:Armure):Integer

        }

        Equipement .> gameContent.items.armes.Arme: <<utilise>>
        Equipement .> gameContent.items.armures.Armure: <<utilise>>
        Equipement .> gameContent.items.armes.ArmeGuerre: <<utilise>>
        Equipement .> gameContent.items.armures.ArmureLourde: <<utilise>>

        Equipement "1" o--> "0..1" gameContent.items.armures.Armure: est composé de >
        Equipement "1" o--> "0..1" gameContent.items.armes.Arme: est composé de >

        interface Item <<interface>> {
            +getNom():String
            +avecArticleDefini():String
            +avecArticleIndefini():String
            +avecArticlePartitif():String
        }

        package armures {

            interface Armure <<interface>> extends gameContent.items.armes.Item {
                +getNom():String
                +getClasseArmure():Integer

                +avecArticleDefini():String
                +avecArticleIndefini():String
                +avecArticlePartitif():String
            }

            class ArmureLourde implements Armure {
                -m_nom:String
                -m_classeArmure:Integer

                +<<create>> ArmureLourde(nom:String, classeArmure:Integer, genre:Substantif):ArmureLourde

                +getNom():String
                +getClasseArmure():Integer

                +avecArticleDefini():String
                +avecArticleIndefini():String
                +avecArticlePartitif():String
            }

            ArmureLourde "1" *--> "1-m_genre" fonctionnement.grammaire.Substantif: est au >

            class ArmureLegere implements Armure {
                -m_nom:String
                -m_classeArmure:Integer

                +<<create>> ArmureLegere(nom:String, classeArmure:Integer, genre:Substantif):ArmureLegere

                +getNom():String
                +getClasseArmure():Integer

                +avecArticleDefini():String
                +avecArticleIndefini():String
                +avecArticlePartitif():String

            }

            ArmureLegere "1" *--> "1-m_genre" fonctionnement.grammaire.Substantif: est au >


        }

        package armes {

            interface Arme <<interface>> extends gameContent.items.armes.Item {
                +getNom():String;
                +getDegats():Integer
                +getPortee():Integer

                +addBonus()

                +avecArticleDefini():String
                +avecArticleIndefini():String
                +avecArticlePartitif():String
            }

            class ArmeCourante implements Arme {
                -m_nom:String
                -m_portee:Integer
                -m_bonus:Integer

                +<<create>> ArmeCourante(nom:String, portee:Integer, degats:De, genre:Substantif):ArmeCourante

                +getNom():String
                +getDegats():Integer
                +getPortee():Integer

                +addBonus()

                +avecArticleDefini():String
                +avecArticleIndefini():String
                +avecArticlePartitif():String

            }

            ArmeCourante .> fonctionnement.de.De: <<appelle>>

            ArmeCourante "1" o--> "1-m_degats" fonctionnement.de.De: inflige les dégâts d'un lancer de >
            ArmeCourante "1" *--> "1-m_genre" fonctionnement.grammaire.Substantif: est au >

            class ArmeGuerre implements Arme {
                -m_nom:String
                -m_portee:Integer
                -m_bonus:Integer

                +<<create>> ArmeGuerre(nom:String, portee:Integer, degats:De, genre:Substantif):ArmeGuerre

                +getNom():String
                +getDegats():Integer
                +getPortee():Integer

                +addBonus()

                +avecArticleDefini():String
                +avecArticleIndefini():String
                +avecArticlePartitif():String
            }

            ArmeGuerre .> fonctionnement.de.De: <<appelle>>

            ArmeGuerre "1" o--> "1-m_degats" fonctionnement.de.De: inflige les dégâts d'un lancer de >
            ArmeGuerre "1" *--> "1-m_genre" fonctionnement.grammaire.Substantif: est au >

            class ArmeDistance implements Arme {
                -m_nom:String
                -m_portee:Integer
                -m_bonus:Integer

                +<<create>> ArmeDistance(nom:String, degats:De, portee:Integer, genre:Substantif):ArmeDistance

                +getNom():String
                +getDegats():Integer
                +getPortee():Integer

                +addBonus()

                +avecArticleDefini():String
                +avecArticleIndefini():String
                +avecArticlePartitif():String
            }

            ArmeDistance .> fonctionnement.de.De: <<appelle>>

            ArmeDistance "1" o--> "1-m_degats" fonctionnement.de.De: inflige les dégâts d'un lancer de >
            ArmeDistance "1" *--> "1-m_genre" fonctionnement.grammaire.Substantif: est au >

        }
    }
    package personnages
    {
        abstract class Entite <<abstract>> {
            -m_x:Integer
            -m_y:Integer

            + {abstract} getPvs():Integer
            + {abstract} getForce():Integer
            + {abstract} getDexterite():Integer
            + {abstract} getInitiative():Integer

            + {abstract} estAttaquePar(Monstre monstre):Boolean
            + {abstract} estAttaquePar(Personnage perso):Boolean
            + {abstract} attaquer(Entite entite):Boolean

            +getX():Integer
            +getY():Integer

            +setPosition(x:Integer, y:Integer)
        }

        Entite .> gameContent.personnages.monstre.Monstre: <<instancie>>
        Entite .> gameContent.personnages.perso.Personnage: <<instancie>>
        Entite .> gameContent.personnages.Caracteristique: <<utilise>>

        package perso {
            class Personnage extends gameContent.personnages.Entite {
                -m_nom:String
                -m_pvsMax:Integer
                -m_sorts:Optional[*]

                +<<create>> Personnage(nom:String, race:Race, classe:Classe):Personnage

                +getNom():String
                +getInventaire():Armurerie
                +getCaracteristiques():CaracteristiquePersonnage
                +getPvs():Integer
                +getForce():Integer
                +getDexterite:Integer
                +getInitiative:Integer
                +getVitesse():Integer
                +getArmeEquipee:Arme
                +getArmureEquipee:Armure
                +getDegats():Integer

                +setCaracteristiques(CaracteristiquePersonnage caracteristiques)
                +setEquipementArme(Arme arme)
                +setEquipementArmure(Armure armure)
                +setInventaire(Armurerie inventaire)

                +attaquer(entite:Entite):Boolean
                +estAttaquePar(agresseur:Monstre):Boolean
                +estAttaquePar(agresseur:Personnage):Boolean
                +equiperArme()
                +equiperArmure()
                +estPasMort():Boolean

            }

            Personnage .> fonctionnement.de.De: <<appelle>>

            Personnage "1" *--> "1..*-m_race" gameContent.personnages.perso.race.Race
            Personnage "1" *--> "1..*-m_classe" gameContent.personnages.perso.classe.Classe
            Personnage "1" *--> "1-m_caracteristique" gameContent.personnages.perso.CaracteristiquePersonnage
            Personnage "1" *--> "1-m_inventaire" gameContent.items.Armurerie
            Personnage "1" *--> "1-m_equipement" gameContent.items.Equipement
            Personnage "1..*" *--> "1-m_attaque" gameContent.personnages.perso.AttaquePersonnage


            class AttaquePersonnage implements gameContent.personnages.Attaque {
                -m_degats:Integer

                +<<create>> AttaquePersonnage():AttaquePersonnage

                +getDegats():Integer
            }

            AttaquePersonnage .> De : <<appelle>>

            class CaracteristiquePersonnage extends gameContent.personnages.Caracteristique {
                -m_vitesse:Integer

                +<<create>> CaracteristiquePersonnage(pv:Integer, force:Integer, dexterite:Integer, initiative:Integer, vitesse:Integer):CaracteristiquePersonnage
            }



                package race{
                    abstract class Race <<abstract>>{
                        -m_nom:String

                        +<<create>> Race(nom:String, pv:Integer, force:Integer, dexterite:Integer, initiative:Integer, vitesse:Integer):Race

                        +getCaracteristiques():CaracteristiquePersonnage
                        +getNom():String

                    }

                    Race .> fonctionnement.de.De: <<appelle>>

                    class Elfe extends gameContent.personnages.perso.race.Race {
                        +<<create>> Elfe()
                    }
                    class Halfelin extends gameContent.personnages.perso.race.Race {
                        +<<create>> Halfelin()
                    }
                    class Humain extends gameContent.personnages.perso.race.Race {
                        +<<create>> Humain()
                    }
                    class Nain extends gameContent.personnages.perso.race.Race {
                        +<<create>> Nain()
                    }
                }

                Race "1" *--> "1-m_caracteristique" gameContent.personnages.perso.CaracteristiquePersonnage : possède >

                package classe{
                    interface Classe <<interface>> {

                        +getPvs():Integer
                        +getNom():String
                        +getArmurerie():Armurerie

                        +modifyArmurerie():Armurerie

                        +definirSorts():Optional[*]
                    }

                    Classe .> gameContent.sorts.Sorts: <<utilise>>



                    class Clerc implements gameContent.personnages.perso.classe.Classe {
                        -m_nom:String
                        -m_pvs:Integer

                        +<<create>> Clerc():Clerc

                        +getPvs():Integer
                        +getNom():String
                        +getArmurerie():Armurerie

                        +modifyArmurerie():Armurerie

                        +definirSorts():Optional[*]
                    }

                    Clerc "1" o--> "1-m_armurerie" gameContent.items.Armurerie: possède une >
                    Clerc .> gameContent.sorts.Sorts: <<utilise>>


                    class Guerrier implements gameContent.personnages.perso.classe.Classe {
                        -m_nom:String
                        -m_pvs:Integer

                        +<<create>> Guerrier():Guerrier

                        +getPvs():Integer
                        +getNom():String
                        +getArmurerie():Armurerie

                        +modifyArmurerie():Armurerie
                    }

                    Guerrier "1" o--> "1-m_armurerie" gameContent.items.Armurerie: possède une >


                    class Magicien implements gameContent.personnages.perso.classe.Classe {
                        -m_nom:String
                        -m_pvs:Integer

                        +<<create>> Magicien():Magicien

                        +getPvs():Integer
                        +getNom():String
                        +getArmurerie():Armurerie

                        +modifyArmurerie():Armurerie

                        +definirSorts():Optional[*]
                    }

                    Magicien "1" o--> "1-m_armurerie" gameContent.items.Armurerie: possède une >
                    Magicien .> gameContent.sorts.Sorts: <<utilise>>


                    class Roublard implements gameContent.personnages.perso.classe.Classe {
                        -m_nom:String
                        -m_pvs:Integer

                        +<<create>> Roublard():Roublard

                        +getPvs():Integer
                        +getNom():String
                        +getArmurerie():Armurerie

                        +modifyArmurerie():Armurerie
                    }

                    Roublard "1" o--> "1-m_armurerie" gameContent.items.Armurerie: possède une >

                }
        }


        abstract class Caracteristique <<abstract>> {
            -m_pv:Integer
            -m_force:Integer
            -m_dexterite:Integer
            -m_initiative:Integer
            -m_vitesse:Integer

            +<<create>> Caracteristique(pv:Integer, force:Integer, dexterite:Integer, initiative:Integer):Caracteristique

            +getPv():Integer
            +getForce():Integer
            +getDexterite():Integer
            +getInitiative():Integer
            +getVitesse():Integer

            +modifyPvs(pv:Integer)
            +modifyForce(force:Integer)
            +modifyDexterite(dexterite:Integer)
            +modifyInitiative(init:Integer)
            +modifyVitesse(vitesse:Integer)

            +bonusPvs(bonus:Integer)
            +bonusForce(bonus:Integer)
            +bonusDexterite(bonus:Integer)
            +bonusInitiative(bonus:Integer)
            +bonusVitesse(bonus:Integer)
        }

        Caracteristique .> gameContent.personnages.perso.CaracteristiquePersonnage: <<instancie>>
        Caracteristique .> gameContent.personnages.monstre.CaracteristiqueMonstre: <<instancie>>

        interface Attaque <<interface>> {
            +getDegats():Integer
        }

        Attaque .> gameContent.personnages.perso.AttaquePersonnage: <<instancie>>
        Attaque .> gameContent.personnages.monstre.AttaqueMonstre: <<instancie>>






    package monstre {

        class Monstre extends gameContent.personnages.Entite {

            +<<create>> Monstre(carac:CaracteristiqueMonstre, espece:Espece, attaque:Attaque):Monstre
            +<<create>> Monstre(carac:CaracteristiqueMonstre, attaque:Attaque):Monstre
            +<<create>> Monstre(carac:CaracteristiqueMonstre):Monstre
            +<<create>> Monstre(aCopier:Monstre):Monstre

            +getEspece():String
            +getAttaque():Attaque
            +getCaracteristiques():CaracteristiqueMonstre
            +getPvs():Integer
            +getForce():Integer
            +getInitiative():Integer
            +getDexterite():Integer
            +getDegats():Integer
            +getClasseArmure():Integer

            +toString():String
            +toStringSansCo():String

            +attaquer(cible:Entite):Boolean
            +estAttaquePar(agresseur:Personnage):Boolean
            +estAttaquePar(agresseur:Monstre):Boolean

            + {static} getEspeceByNom(nom:String):Espece
            + {static} getMonstreByNom(nom:String):Monstre
            + {static} getAttaqueByNom(nom:String):AttaqueMonstre
            + {static} getCaracByNom(nom:String):CaracteristiqueMonstre
        }

        Monstre .> fonctionnement.de.De: <<appelle>>


        Monstre "1" *--> "1..*-m_espece" gameContent.personnages.monstre.Espece: est un >
        Monstre "1" *--> "1-m_caracteristique" gameContent.personnages.monstre.CaracteristiqueMonstre: possède des >
        Monstre "1" *--> "1-m_attaque" gameContent.personnages.monstre.AttaqueMonstre: attaque avec une >




        class CaracteristiqueMonstre extends gameContent.personnages.Caracteristique {
            -m_classeArmure:Integer

            +<<create>> CaracteristiqueMonstre(pv:Integer, force:Integer, dexterite:Integer, initiative:Integer, vitesse:Integer, classeArmure:Integer):CaracteristiqueMonstre

            +getClassArmure():Integer

            +toString():String
        }



        class AttaqueMonstre implements gameContent.personnages.Attaque {
            -m_nom:String
            -m_portee:Integer
            -m_degats:Integer

            +<<create>> AttaqueMonstre(attaque:String, portee:Integer, degats:Integer):AttaqueMonstre

            +getAttaque():String
            +getPortee():Integer
            +getDegats():Integer

            +toString():String


        }

        class Espece {
            -m_nomEspece:String
            -m_numero:Integer

            +<<create>> Espece(espece:String, num:Integer):Espece
            +<<create>> Espece(espece:String):Espece

            +getNomEspece():String
            +getNum():Integer

            +toString():String
        }

    }

    package sorts {
        abstract class Sorts <<abstract>> {
            -m_nbSorts:Integer
            -m_guerison:Integer
            -m_boogieWoogie:Integer
            -m_armeMagique:Integer
            #m_nom:String

            +<<create>> Sorts(nom:String):Sorts
        }

        class ArmeMagique extends gameContent.sorts.Sorts {
            +<<create>> ArmeMagique():ArmeMagique

            + {static} lancer(pers:Personnage, arme:Arme)
        }

        ArmeMagique .> gameContent.personnages.perso.Personnage: <<utilise>>
        ArmeMagique .> gameContent.items.armes.Arme: <<utilise>>

        class BoogieWoogie extends gameContent.sorts.Sorts {
            +<<create>> BoogieWoogie():BoogieWoogie

            + {static} lancer(perso1:Entite, perso2:Entite, map:Map)
        }

        BoogieWoogie .> gameContent.personnages.Entite: <<utilise>>
        BoogieWoogie .> gameContent.personnages.perso.Personnage: <<utilise>>
        BoogieWoogie .> gameContent.personnages.monstre.Monstre: <<utilise>>
        BoogieWoogie .> fonctionnement.mdj.Map: <<utilise>>

        class Guerison extends gameContent.sorts.Sorts {
            +<<create>> Guerison():Guerison

            + {static} lancer(pers:Personnage)
        }

        Guerison .> gameContent.personnages.perso.Personnage: <<utilise>>
        Guerison .> fonctionnement.de.De: <<appelle>>
    }


}

}





package fonctionnement {

    package affichage{
        class Affichage {
            + {static} afficher(message:String)
            + {static} afficherErreur(message:String)
            + {static} afficherMap(carte:Map)
            + {static} afficherLigneMap(largeur:Integer)
            + {static} afficherLigneLettreMap(largeur:Integer)
            + {static} afficherTour(tour:Integer, perso:Personnage, carte:Map)
            + {static} afficherInventaire(perso:Personnage)
            + {static} afficherAction(actions:String[*])
            + {static} afficherDetailsMonstres(Coordonnees[][] map)
            + {static} afficherMonstres(Coordonnees[][] map)
            + {static} demanderQuiAttaquer()
            + {static} afficherArmes(Personnage pers)
            + {static} plusDInfos()
            + {static} afficherAllMonstres(monstres:Monstre[*])
            + {static} afficherLstItems(lst:String[*])
        }

        class AfficherDsMonstre {
            + {static} afficherMonstreVaincu()
            + {static} afficherPvRestantsMonstre(pvRestants:Integer)
            + {static} afficherAttaqueEchouee()
            + {static} afficherErreurPortee()
            + {static} afficherMonstre(m:Monstre)
            + {static} possibilitesMonstre()
            + {static} possibilitesEspece()
            + {static} possibilitesAttaque()
            + {static} possibilitesCarac()
        }

        class AfficherDsPersonnage {
            + {static} afficherPersonnageVaincu()
            + {static} afficherPvRestantsPerso(pvRestants:Integer)
            + {static} afficherErreurPortee()
            + {static} afficherPersoVaincu()
        }

        class AffichageCarte {
            + {static} demanderObstacles();
            + {static} demanderTresors();
            + {static} demanderMonstres();
            + {static} coordInvalide()
            + {static} caseOccupee();
            + {static} creerMonstreExistantOuPas()
            + {static} afficherMonstresPossibles()
            + {static} afficherEspecesPossibles()
            + {static} afficherAttaquesPossibles()
            + {static} afficherCaracPossibles()
        }

        class AffichageCreateMonstre {
            + {static} demanderEspece()
            + {static} demanderAttaque()
            + {static} demanderPorteeAttaque()
            + {static} demanderDegatsAttaque()
            + {static} demanderPvMonstre()
            + {static} demanderForce()
            + {static} demanderDexterite()
            + {static} demanderInitiative()
            + {static} demanderClasseArmure()
            + {static} demanderVitesse()
            + {static} demanderEspecePredefinie()
            + {static} demanderAttaquePredefinie()
            + {static} demanderCaracPredefinies()
        }

        Affichage .> gameContent.personnages.perso.Personnage: <<utilise>>
        Affichage .> gameContent.personnages.monstre.Monstre: <<utilise>>
        Affichage .> fonctionnement.coordonnees.Coordonnees: <<utilise>>
        Affichage .> fonctionnement.mdj.Map: <<utilise>>
        Affichage .> gameContent.items.armes.Arme: <<utilise>>
        Affichage .> gameContent.items.armures.Armure: <<utilise>>
        Affichage .> gameContent.items.Equipement: <<utilise>>
        Affichage .> gameContent.items.Item: <<utilise>>
        Affichage .> gameContent.personnages.monstre.Espece: <<utilise>>

        AffichageCarte .> fonctionnement.affichage.AfficherDsMonstre: <<appelle>>

        AfficherDsMonstre .> gameContent.personnages.monstre.CaracteristiqueMonstre: <<utilise>>
        AfficherDsMonstre .> gameContent.personnages.monstre.AttaqueMonstre: <<ut

    }

    package de {
        class De {
            -m_faces:Integer
            -m_nbdedes:Integer
            +<<create>> De(nbDes:Integer, faces:Integer):De
            +lancerDe():Integer
            +toString():String
        }
    }
    package mdj {
        class Map{
            -m_nbJoueurs:Integer
            -m_longueur:Integer
            -m_largeur:Integer
            -m_nbMonstre:Integer
            -m_nbTresors:Integer
            -m_nbObstacles:Integer

            +<<create>> Map(longueur:Integer, largeur:Integer, nbJoueurs:Integer, joueurs:Personnage[*]):Map
            +<<create>> Map(nbJoueurs:Integer, joueurs:Personnage[*]):Map

            +demanderMap()
            +redemanderMap()
            +initMap()
            +createMap()
            +createRandomMap()

            +placerPerso();
            +placerMonstre();
            +placerObstacle();
            +placerTresor();

            +createRandomMonstres():Monstre
            +createMonstre():Monstre

            +seDeplacer()
            +Deplacement():Boolean
            +demandeCaractere():char

            +setCase(i:Integer, j:Integer, co:Coordonnees)


            +getCarte():Integer[15:25]
            +getLongueur():Integer
            +getLargeur():Integer
            +getCase():Coordonnees
            +getNbMonstre():Integer
            +getJoueurs():Personnage[*]
            +getMonstreByNom():Monstre
            +getMonstres():Monstre[*]
        }

        'Des coordonnées n'existent pas sans carte ; 1 carte a 1x des coordonnées, et les coordonnées ne sont associées qu'à 1 carte
        Map "1" *--> "1-m_carte" fonctionnement.coordonnees.Coordonnees: belongs to >

        'Perso existe sans carte ; map peut avoir 0 perso mais perso peut qu'etre sur 1 map
        Map "0..*" o--> "1-m_joueurs" gameContent.personnages.perso.Personnage: is part of >

        Map "0..*" o--> "1-m_monstres" gameContent.personnages.monstre.Monstre: is part of >

        class Mdj{
            -m_nbJoueurs:Integer
            -m_nbMonstres:Integer
            -m_nbTresors:Integer
            -m_mdjActions:String[*]

            +<<create>> Mdj():Mdj

            +getNbJoueurs():Integer
            +getJoueurs():Personnage[*]
            +getMap():Map

            +chooseRace():Race
            +chooseClasse():Classe
            +mdjMapDimensions():Map
            +verifyMorts():Boolean
            +donjon()
            +tourMdj(tour:Integer)
        }

        Mdj "0" *--> "1-m_map" fonctionnement.mdj.Map: possède une >
        Mdj "0" o--> "1..*-m_joueurs" gameContent.personnages.perso.Personnage: crée des >
        Mdj "0" o--> "1..*-m_monstres" gameContent.personnages.monstre.Monstre: crée des >
        Mdj "0" o--> "1..*-m_tresors" gameContent.items.Armurerie: crée des >


        class Tour {
            -m_tour:Integer
            -m_nbActions:Integer
            -m_actions:String[*]
            -m_finTour:Boolean
            -m_actionsPrecedentes:String[*]

            +<<create>> Tour(pers:Personnage):Tour
            +<<create>> Tour(pers:Personnage, tour:Integer, map:Map):Tour

            +jouerTour(i:Integer)
            +choisirEquipement()
            +caseTresor(coord:Coordonnees):Boolean
            +initialiserActions()
            +sortsDisponibles(sorts:Optional[*]):Boolean
            +utiliserAttak()
            +seDeplacer()
            +Deplacement(posActuelle:Coordonnees, posVoulue:Coordonnees):Boolean
            +initBoogieWoogie()
            +initArmeMagique()
            +anciennesActions()

            +getActions():String[*]
            +getStatut():Integer
            +getListActions():Integer
        }

        Tour "0" o--> "1-m_perso" gameContent.personnages.perso.Personnage: fait jouer un >
        Tour "1" o--> "1-m_map" fonctionnement.mdj.Map: est réalisé sur une >

        class CreerEntites {
            + {static} createCaracMonstre():CaracteristiqueMonstre
            + {static} createAttaqueMonstre():AttaqueMonstre
            + {static} createEspece(especeMonstre:String, num:Integer):Espece
            + {static} createEspece(especeMonstre:String):Espece
        }

    }

    package coordonnees {
        abstract class Coordonnees <<abstract>> {
            -m_x:Integer
            -m_y:Integer
            -m_affichage:Char[*]
            +<<create>> Coordonnes(x:Integer, y:Integer, affichage;Char[*]):Coordonnees

            +getX():Integer
            +getY():Integer
            +getAffichage():String
            +getMonstre():Monstre
            +getCaseVide():String
            +getPersonnage():Personnage
            +getItem():Item

            +setX(newX:Integer)
            +setY(newY:Integer)

            +toString():String
        }

        class CoordonneesCaseVide extends Coordonnees {
            +<<create>> CoordonneesCaseVide(x:Integer, y:Integer):CoordonneesCaseVide
            +getCaseVide():String
        }

        class CoordonneesItem extends Coordonnees {
            +<<create>> CoordonneesItem(x:Integer, y:Integer):CoordonneesItem
            +<<create>> CoordonneesItem(x:Integern y:Integer, i:Integer):CoordonneesItem
            +getItem():Item
        }
        CoordonneesItem "1" o--> "1-m_item" gameContent.items.Item: is part of >
        CoordonneesItem "1" o--> "1..*m_items" gameContent.items.Item: peut contenir ces >

        class CoordonneesMonstre extends Coordonnees {
            +<<create>> CoordonneesMonstre(x:Integer, y:Integer):CoordonneesMonstre
            +getMonstre():Monstre
        }
        CoordonneesMonstre "1" *--> "1-m_monstre" gameContent.personnages.monstre.Monstre: belongs to >

        class CoordonneesObstacle extends Coordonnees {
            +<<create>> CoordonneesObstacle(x:Integer, y:Integer):CoordonneesObstacle
        }

        class CoordonneesPersonnage extends Coordonnees {
            +<<create>> CoordonneesPersonnage(x:Integer, y:Integer, personnage:Personnage):CoordonneesPersonnage
            +getPersonnage():Personnage
        }
        CoordonneesPersonnage "1" *--> "1-m_personnage" gameContent.personnages.perso.Personnage: belongs to >
    }

    package utilisateur {
        class RecupInfos {
            + {static} scanString():String
            + {static} scanInt():Integer
            + {static} scanCoord(map:Map):Integer[*]
            + {static} scanOuiNon():Char
        }
    }

    package grammaire {
        interface Genre <<interface>> {
            +getArticleDefini():String
            +getArticleIndefini():String
            +getAtriclePartitif():String
            +getArticleDemonstratif():String
        }

        class Feminin implements fonctionnement.grammaire.Genre {
            +getArticleDefini():String
            +getArticleIndefini():String
            +getAtriclePartitif():String
            +getArticleDemonstratif():String

            +toString():String
        }

        class Masculin implements fonctionnement.grammaire.Genre {
            +getArticleDefini():String
            +getArticleIndefini():String
            +getAtriclePartitif():String
            +getArticleDemonstratif():String

            +toString():String
        }

        class Substantif {
            -m_nom:String
            -m_elision:Boolean

            +<<create>> Substantif(nom:String, genre:Genre):Substantif

            +getNom():String

            +avecArticleDefini():String
            +avecArticleIndefini():String
            +avecArticlePartitif():String

            +equals(other:Object):Boolean
            +toString():String
        }

        Substantif "1" *--> "1-m_genre" fonctionnement.grammaire.Genre: possède >
    }

}
@enduml